<svg id="svg" version="1.1" width="128" height="128" xmlns="http://www.w3.org/2000/svg" xmlns:xlink="http://www.w3.org/1999/xlink" >
    <g id="svgg" transform="scale(.3)">
        <path id="path0" d="M0.313 2.805 C 0.159 5.930,0.168 5.984,0.748 5.625 C 0.975 5.485,1.161 4.257,1.161 2.896 L 1.161 0.422 3.772 0.287 L 6.383 0.152 3.417 0.076 L 0.450 -0.000 0.313 2.805 M197.679 0.340 C 194.469 1.392,3.841 97.221,2.760 98.326 C 0.696 100.438,0.777 95.981,0.793 205.996 C 0.809 316.407,0.725 311.360,2.574 313.418 C 4.111 315.127,197.911 411.605,199.808 411.605 C 202.819 411.605,396.081 314.764,397.575 312.507 L 398.646 310.888 398.646 206.411 C 398.646 148.949,398.516 101.469,398.356 100.900 C 397.611 98.245,399.298 99.129,299.211 48.937 C 197.875 -1.882,200.552 -0.601,197.679 0.340 M395.648 0.287 L 398.453 0.421 398.453 3.112 C 398.453 5.545,398.527 5.803,399.226 5.803 C 399.652 5.803,400.000 5.629,400.000 5.416 C 400.000 5.203,399.739 5.029,399.420 5.029 C 398.963 5.029,398.839 4.492,398.839 2.515 L 398.839 0.000 395.841 0.077 L 392.843 0.154 395.648 0.287 M288.394 58.704 C 336.799 82.906,376.402 102.795,376.402 102.901 C 376.402 103.218,200.440 191.103,199.807 191.103 C 199.173 191.103,23.211 103.218,23.211 102.901 C 23.211 102.567,198.996 14.744,199.710 14.722 C 200.082 14.710,239.990 34.502,288.394 58.704 M125.016 60.704 C 68.474 88.973,51.338 97.702,50.554 98.632 C 48.251 101.370,48.356 105.050,50.810 107.559 C 52.913 109.710,197.589 181.818,199.803 181.818 C 201.684 181.818,345.383 110.403,348.098 108.119 C 351.286 105.436,351.468 100.740,348.489 98.007 C 346.744 96.405,201.279 23.985,199.807 23.985 C 198.794 23.985,180.228 33.100,125.016 60.704 M203.283 40.318 L 206.576 41.952 206.576 102.983 L 206.576 164.015 203.490 165.566 C 199.712 167.466,199.901 167.466,196.123 165.566 L 193.037 164.015 193.037 102.944 L 193.037 41.873 196.228 40.309 C 200.152 38.386,199.384 38.385,203.283 40.318 M179.110 102.901 L 179.110 157.060 125.145 130.078 C 95.464 115.238,71.180 103.008,71.180 102.901 C 71.180 102.756,178.494 48.880,179.014 48.764 C 179.067 48.752,179.110 73.114,179.110 102.901 M274.468 75.918 C 303.936 90.652,328.046 102.834,328.046 102.989 C 328.046 103.144,303.849 115.376,274.275 130.170 L 220.503 157.068 220.503 103.099 C 220.503 73.416,220.590 49.130,220.696 49.130 C 220.802 49.130,244.999 61.184,274.468 75.918 M103.868 158.704 L 193.037 203.287 193.037 298.581 C 193.037 350.993,192.898 393.817,192.727 393.746 C 192.557 393.675,152.344 373.546,103.366 349.015 L 14.313 304.414 14.313 209.267 C 14.313 156.936,14.400 114.120,14.507 114.120 C 14.613 114.120,54.826 134.183,103.868 158.704 M384.913 209.381 L 384.913 304.643 295.745 349.227 L 206.576 393.810 206.576 298.549 L 206.576 203.287 295.648 158.725 C 344.637 134.216,384.763 114.153,384.816 114.141 C 384.869 114.130,384.913 156.988,384.913 209.381 M24.866 130.403 C 23.610 131.024,23.007 131.674,22.252 133.218 L 21.269 135.226 21.370 216.674 L 21.470 298.122 22.541 299.741 C 24.296 302.392,176.698 378.504,179.746 378.251 C 182.239 378.045,184.301 376.594,185.333 374.320 C 186.032 372.781,186.057 370.003,186.065 291.767 C 186.074 203.696,186.211 209.379,184.024 207.023 C 183.556 206.519,148.748 188.891,106.674 167.850 C 22.351 125.681,28.613 128.548,24.866 130.403 M293.037 167.736 C 217.220 205.681,215.089 206.800,214.072 209.175 C 213.276 211.036,213.276 372.330,214.072 374.190 C 215.152 376.714,217.677 378.337,220.525 378.337 C 222.281 378.337,373.759 302.898,375.760 301.027 C 378.355 298.600,378.131 306.044,378.260 218.182 C 378.324 174.458,378.267 137.603,378.134 136.281 C 377.708 132.066,375.569 129.895,371.659 129.708 L 369.246 129.594 293.037 167.736 M42.166 205.445 L 42.166 260.011 38.871 261.534 C 37.059 262.371,35.492 263.056,35.390 263.056 C 35.287 263.056,35.203 237.029,35.203 205.219 L 35.203 147.381 38.685 149.130 L 42.166 150.878 42.166 205.445 M364.410 205.420 L 364.410 263.451 360.928 261.702 L 357.447 259.954 357.447 205.416 L 357.447 150.879 360.832 149.153 C 362.693 148.204,364.260 147.419,364.313 147.408 C 364.367 147.398,364.410 173.503,364.410 205.420 M103.481 181.527 C 129.545 194.559,150.870 205.309,150.870 205.416 C 150.870 205.607,56.280 252.998,55.899 252.998 C 55.793 252.998,55.706 231.586,55.706 205.416 C 55.706 179.246,55.793 157.834,55.899 157.834 C 56.005 157.834,77.417 168.496,103.481 181.527 M343.907 205.416 C 343.907 231.586,343.820 252.998,343.714 252.998 C 343.334 252.998,248.743 205.607,248.743 205.416 C 248.743 205.207,343.129 157.892,343.617 157.855 C 343.777 157.843,343.907 179.246,343.907 205.416 M169.632 214.616 L 172.340 216.054 172.340 219.149 L 172.340 222.244 103.762 256.582 L 35.184 290.921 35.290 284.732 L 35.397 278.543 100.774 245.878 C 136.731 227.912,166.325 213.204,166.538 213.195 C 166.750 213.185,168.143 213.825,169.632 214.616 M298.839 245.938 L 364.410 278.722 364.410 284.816 L 364.410 290.909 295.745 256.577 L 227.079 222.245 227.079 219.137 L 227.079 216.030 229.884 214.614 C 231.426 213.836,232.819 213.188,232.978 213.176 C 233.138 213.163,262.775 227.906,298.839 245.938 M172.534 286.460 C 172.534 313.375,172.447 335.397,172.340 335.397 C 172.233 335.397,150.181 324.414,123.335 310.991 L 74.525 286.585 123.239 262.067 C 150.032 248.583,172.084 237.544,172.244 237.537 C 172.403 237.530,172.534 259.545,172.534 286.460 M276.200 262.053 L 325.096 286.581 276.282 310.989 C 249.434 324.413,227.380 335.397,227.273 335.397 C 227.167 335.397,227.079 313.375,227.079 286.460 C 227.079 259.545,227.130 237.524,227.192 237.524 C 227.254 237.524,249.308 248.562,276.200 262.053 M116.055 322.631 L 172.534 350.871 172.534 355.513 C 172.534 358.347,172.383 360.155,172.147 360.155 C 171.631 360.155,49.903 299.284,49.903 299.026 C 49.903 298.750,58.486 294.441,59.091 294.413 C 59.358 294.401,84.991 307.099,116.055 322.631 M345.257 296.607 C 347.706 297.826,349.710 298.915,349.710 299.026 C 349.710 299.284,227.982 360.155,227.466 360.155 C 227.230 360.155,227.079 358.347,227.079 355.513 L 227.079 350.871 283.462 322.652 C 314.473 307.132,340.061 294.424,340.325 294.412 C 340.588 294.400,342.808 295.388,345.257 296.607 M0.321 409.090 L 0.448 411.992 2.900 411.992 C 4.249 411.992,5.628 412.098,5.964 412.227 C 6.301 412.356,6.576 412.269,6.576 412.034 C 6.576 411.761,5.590 411.605,3.868 411.605 L 1.161 411.605 1.161 408.897 C 1.161 406.990,1.018 406.189,0.677 406.189 C 0.322 406.188,0.227 406.958,0.321 409.090 M398.453 408.897 L 398.453 411.605 395.745 411.605 C 394.255 411.605,393.036 411.736,393.036 411.896 C 393.035 412.055,394.341 412.128,395.937 412.058 L 398.839 411.931 398.839 409.282 C 398.839 407.085,398.955 406.603,399.516 406.456 C 400.026 406.323,399.978 406.268,399.323 406.234 C 398.499 406.192,398.453 406.334,398.453 408.897 " stroke="none" fill="#7f41fc" fill-rule="evenodd"></path>
    </g>
</svg>