<svg xmlns="http://www.w3.org/2000/svg" width="1440" height="900"><path d="M678,440L590,421L672,473Z" fill="#5831a4" stroke="#5831a4" stroke-width="1.51"/><path d="M590,421L618,507L672,473Z" fill="#5731a1" stroke="#5731a1" stroke-width="1.51"/><path d="M678,440L643,318L590,421Z" fill="#56309d" stroke="#56309d" stroke-width="1.51"/><path d="M672,473L746,415L678,440Z" fill="#5931a8" stroke="#5931a8" stroke-width="1.51"/><path d="M590,421L532,523L618,507Z" fill="#56319b" stroke="#56319b" stroke-width="1.51"/><path d="M746,415L643,318L678,440Z" fill="#5731a1" stroke="#5731a1" stroke-width="1.51"/><path d="M590,421L478,408L532,523Z" fill="#56309b" stroke="#56309b" stroke-width="1.51"/><path d="M575,303L536,350L590,421Z" fill="#533092" stroke="#533092" stroke-width="1.51"/><path d="M618,507L704,568L672,473Z" fill="#57329f" stroke="#57329f" stroke-width="1.51"/><path d="M672,473L749,525L746,415Z" fill="#5a31a9" stroke="#5a31a9" stroke-width="1.51"/><path d="M603,603L704,568L618,507Z" fill="#563198" stroke="#563198" stroke-width="1.51"/><path d="M704,568L749,525L672,473Z" fill="#5832a2" stroke="#5832a2" stroke-width="1.51"/><path d="M643,318L575,303L590,421Z" fill="#543094" stroke="#543094" stroke-width="1.51"/><path d="M532,523L603,603L618,507Z" fill="#543195" stroke="#543195" stroke-width="1.51"/><path d="M536,350L478,408L590,421Z" fill="#543094" stroke="#543094" stroke-width="1.51"/><path d="M387,328L478,408L536,350Z" fill="#512f8a" stroke="#512f8a" stroke-width="1.51"/><path d="M746,415L746,299L643,318Z" fill="#56319d" stroke="#56319d" stroke-width="1.51"/><path d="M643,318L590,259L575,303Z" fill="#52308e" stroke="#52308e" stroke-width="1.51"/><path d="M821,382L746,299L746,415Z" fill="#56319d" stroke="#56319d" stroke-width="1.51"/><path d="M575,303L504,256L536,350Z" fill="#502f89" stroke="#502f89" stroke-width="1.51"/><path d="M659,226L590,259L643,318Z" fill="#522f8d" stroke="#522f8d" stroke-width="1.51"/><path d="M532,523L514,606L603,603Z" fill="#53308f" stroke="#53308f" stroke-width="1.51"/><path d="M414,559L514,606L532,523Z" fill="#52318b" stroke="#52318b" stroke-width="1.51"/><path d="M838,515L821,382L746,415Z" fill="#5832a3" stroke="#5832a3" stroke-width="1.51"/><path d="M749,525L838,515L746,415Z" fill="#5832a3" stroke="#5832a3" stroke-width="1.51"/><path d="M704,568L767,607L749,525Z" fill="#57329d" stroke="#57329d" stroke-width="1.51"/><path d="M680,666L767,607L704,568Z" fill="#563299" stroke="#563299" stroke-width="1.51"/><path d="M680,666L704,568L603,603Z" fill="#553295" stroke="#553295" stroke-width="1.51"/><path d="M514,606L586,660L603,603Z" fill="#52328c" stroke="#52328c" stroke-width="1.51"/><path d="M832,603L838,515L749,525Z" fill="#57329a" stroke="#57329a" stroke-width="1.51"/><path d="M586,660L680,666L603,603Z" fill="#53328e" stroke="#53328e" stroke-width="1.51"/><path d="M746,299L659,226L643,318Z" fill="#533093" stroke="#533093" stroke-width="1.51"/><path d="M590,259L504,256L575,303Z" fill="#502f87" stroke="#502f87" stroke-width="1.51"/><path d="M605,171L504,256L590,259Z" fill="#4e2f83" stroke="#4e2f83" stroke-width="1.51"/><path d="M478,408L400,476L532,523Z" fill="#533093" stroke="#533093" stroke-width="1.51"/><path d="M402,407L400,476L478,408Z" fill="#52308f" stroke="#52308f" stroke-width="1.51"/><path d="M387,328L402,407L478,408Z" fill="#502f89" stroke="#502f89" stroke-width="1.51"/><path d="M821,382L845,354L746,299Z" fill="#553198" stroke="#553198" stroke-width="1.51"/><path d="M746,299L776,248L659,226Z" fill="#533093" stroke="#533093" stroke-width="1.51"/><path d="M939,373L845,354L821,382Z" fill="#553196" stroke="#553196" stroke-width="1.51"/><path d="M400,476L414,559L532,523Z" fill="#52308d" stroke="#52308d" stroke-width="1.51"/><path d="M514,606L491,649L586,660Z" fill="#513187" stroke="#513187" stroke-width="1.51"/><path d="M414,559L491,649L514,606Z" fill="#503086" stroke="#503086" stroke-width="1.51"/><path d="M851,266L776,248L746,299Z" fill="#533090" stroke="#533090" stroke-width="1.51"/><path d="M680,666L753,670L767,607Z" fill="#553295" stroke="#553295" stroke-width="1.51"/><path d="M767,607L832,603L749,525Z" fill="#563299" stroke="#563299" stroke-width="1.51"/><path d="M846,649L832,603L767,607Z" fill="#553392" stroke="#553392" stroke-width="1.51"/><path d="M504,256L387,328L536,350Z" fill="#4f2f85" stroke="#4f2f85" stroke-width="1.51"/><path d="M308,511L342,551L400,476Z" fill="#4f3085" stroke="#4f3085" stroke-width="1.51"/><path d="M659,226L605,171L590,259Z" fill="#4f2f86" stroke="#4f2f86" stroke-width="1.51"/><path d="M504,256L431,220L387,328Z" fill="#4c2e7d" stroke="#4c2e7d" stroke-width="1.51"/><path d="M705,166L605,171L659,226Z" fill="#4f2f86" stroke="#4f2f86" stroke-width="1.51"/><path d="M776,248L705,166L659,226Z" fill="#512f8e" stroke="#512f8e" stroke-width="1.51"/><path d="M845,354L851,266L746,299Z" fill="#543192" stroke="#543192" stroke-width="1.51"/><path d="M946,323L851,266L845,354Z" fill="#52308f" stroke="#52308f" stroke-width="1.51"/><path d="M755,141L705,166L776,248Z" fill="#502f88" stroke="#502f88" stroke-width="1.51"/><path d="M832,603L905,612L838,515Z" fill="#553294" stroke="#553294" stroke-width="1.51"/><path d="M957,470L939,373L821,382Z" fill="#563198" stroke="#563198" stroke-width="1.51"/><path d="M753,670L846,649L767,607Z" fill="#553392" stroke="#553392" stroke-width="1.51"/><path d="M470,150L431,220L504,256Z" fill="#4b2e78" stroke="#4b2e78" stroke-width="1.51"/><path d="M414,559L417,684L491,649Z" fill="#4e3081" stroke="#4e3081" stroke-width="1.51"/><path d="M400,476L342,551L414,559Z" fill="#4f3086" stroke="#4f3086" stroke-width="1.51"/><path d="M319,398L400,476L402,407Z" fill="#502f8b" stroke="#502f8b" stroke-width="1.51"/><path d="M387,328L340,346L402,407Z" fill="#4e2f83" stroke="#4e2f83" stroke-width="1.51"/><path d="M331,228L340,346L387,328Z" fill="#4b2e7a" stroke="#4b2e7a" stroke-width="1.51"/><path d="M753,670L818,757L846,649Z" fill="#53338c" stroke="#53338c" stroke-width="1.51"/><path d="M680,666L699,755L753,670Z" fill="#543291" stroke="#543291" stroke-width="1.51"/><path d="M607,784L699,755L680,666Z" fill="#523289" stroke="#523289" stroke-width="1.51"/><path d="M607,784L680,666L586,660Z" fill="#513288" stroke="#513288" stroke-width="1.51"/><path d="M340,346L319,398L402,407Z" fill="#4e2f84" stroke="#4e2f84" stroke-width="1.51"/><path d="M520,773L607,784L586,660Z" fill="#4f3280" stroke="#4f3280" stroke-width="1.51"/><path d="M342,551L417,684L414,559Z" fill="#4e307f" stroke="#4e307f" stroke-width="1.51"/><path d="M957,470L821,382L838,515Z" fill="#58329f" stroke="#58329f" stroke-width="1.51"/><path d="M846,649L905,612L832,603Z" fill="#54338f" stroke="#54338f" stroke-width="1.51"/><path d="M968,666L905,612L846,649Z" fill="#53338a" stroke="#53338a" stroke-width="1.51"/><path d="M905,612L957,470L838,515Z" fill="#553295" stroke="#553295" stroke-width="1.51"/><path d="M319,398L308,511L400,476Z" fill="#502f89" stroke="#502f89" stroke-width="1.51"/><path d="M334,758L437,773L417,684Z" fill="#4a3072" stroke="#4a3072" stroke-width="1.51"/><path d="M705,166L650,71L605,171Z" fill="#4d2e7f" stroke="#4d2e7f" stroke-width="1.51"/><path d="M831,154L755,141L776,248Z" fill="#4f2f85" stroke="#4f2f85" stroke-width="1.51"/><path d="M831,154L776,248L851,266Z" fill="#503088" stroke="#503088" stroke-width="1.51"/><path d="M520,773L586,660L491,649Z" fill="#4f3182" stroke="#4f3182" stroke-width="1.51"/><path d="M431,220L331,228L387,328Z" fill="#4a2e77" stroke="#4a2e77" stroke-width="1.51"/><path d="M605,171L470,150L504,256Z" fill="#4b2e7b" stroke="#4b2e7b" stroke-width="1.51"/><path d="M587,47L470,150L605,171Z" fill="#492d75" stroke="#492d75" stroke-width="1.51"/><path d="M939,373L946,323L845,354Z" fill="#543291" stroke="#543291" stroke-width="1.51"/><path d="M999,353L946,323L939,373Z" fill="#53328d" stroke="#53328d" stroke-width="1.51"/><path d="M437,773L520,773L491,649Z" fill="#4d317a" stroke="#4d317a" stroke-width="1.51"/><path d="M946,323L907,239L851,266Z" fill="#513089" stroke="#513089" stroke-width="1.51"/><path d="M699,755L737,780L753,670Z" fill="#53338d" stroke="#53338d" stroke-width="1.51"/><path d="M675,860L737,780L699,755Z" fill="#513386" stroke="#513386" stroke-width="1.51"/><path d="M470,150L443,146L431,220Z" fill="#492d72" stroke="#492d72" stroke-width="1.51"/><path d="M437,30L443,146L470,150Z" fill="#462d6b" stroke="#462d6b" stroke-width="1.51"/><path d="M907,239L831,154L851,266Z" fill="#4f3084" stroke="#4f3084" stroke-width="1.51"/><path d="M737,780L818,757L753,670Z" fill="#52328a" stroke="#52328a" stroke-width="1.51"/><path d="M237,318L227,430L319,398Z" fill="#4b2e7c" stroke="#4b2e7c" stroke-width="1.51"/><path d="M319,398L227,430L308,511Z" fill="#4f2f85" stroke="#4f2f85" stroke-width="1.51"/><path d="M443,146L331,228L431,220Z" fill="#482d71" stroke="#482d71" stroke-width="1.51"/><path d="M957,470L1005,415L939,373Z" fill="#553295" stroke="#553295" stroke-width="1.51"/><path d="M946,323L1019,247L907,239Z" fill="#4f3084" stroke="#4f3084" stroke-width="1.51"/><path d="M1047,520L1005,415L957,470Z" fill="#553294" stroke="#553294" stroke-width="1.51"/><path d="M417,684L437,773L491,649Z" fill="#4d317b" stroke="#4d317b" stroke-width="1.51"/><path d="M520,773L581,843L607,784Z" fill="#4d327a" stroke="#4d327a" stroke-width="1.51"/><path d="M325,691L417,684L342,551Z" fill="#4c3079" stroke="#4c3079" stroke-width="1.51"/><path d="M778,87L650,71L755,141Z" fill="#4d2f80" stroke="#4d2f80" stroke-width="1.51"/><path d="M755,141L650,71L705,166Z" fill="#4e2e82" stroke="#4e2e82" stroke-width="1.51"/><path d="M1005,415L999,353L939,373Z" fill="#53328f" stroke="#53328f" stroke-width="1.51"/><path d="M251,665L325,691L342,551Z" fill="#4b3075" stroke="#4b3075" stroke-width="1.51"/><path d="M831,154L778,87L755,141Z" fill="#4d2f7f" stroke="#4d2f7f" stroke-width="1.51"/><path d="M873,47L778,87L831,154Z" fill="#4b2e78" stroke="#4b2e78" stroke-width="1.51"/><path d="M607,784L675,860L699,755Z" fill="#503282" stroke="#503282" stroke-width="1.51"/><path d="M437,773L504,818L520,773Z" fill="#4b3175" stroke="#4b3175" stroke-width="1.51"/><path d="M905,612L1005,577L957,470Z" fill="#54338f" stroke="#54338f" stroke-width="1.51"/><path d="M968,666L1005,577L905,612Z" fill="#523388" stroke="#523388" stroke-width="1.51"/><path d="M504,818L581,843L520,773Z" fill="#4c3176" stroke="#4c3176" stroke-width="1.51"/><path d="M737,780L790,820L818,757Z" fill="#513384" stroke="#513384" stroke-width="1.51"/><path d="M938,744L968,666L846,649Z" fill="#513384" stroke="#513384" stroke-width="1.51"/><path d="M237,318L319,398L340,346Z" fill="#4b2e7b" stroke="#4b2e7b" stroke-width="1.51"/><path d="M308,511L233,564L342,551Z" fill="#4d2f7e" stroke="#4d2f7e" stroke-width="1.51"/><path d="M650,71L587,47L605,171Z" fill="#4a2d77" stroke="#4a2d77" stroke-width="1.51"/><path d="M616,-60L587,47L650,71Z" fill="#472d6e" stroke="#472d6e" stroke-width="1.51"/><path d="M818,757L938,744L846,649Z" fill="#513385" stroke="#513385" stroke-width="1.51"/><path d="M675,860L790,820L737,780Z" fill="#513384" stroke="#513384" stroke-width="1.51"/><path d="M437,773L439,805L504,818Z" fill="#4a3172" stroke="#4a3172" stroke-width="1.51"/><path d="M504,818L576,900L581,843Z" fill="#4b3274" stroke="#4b3274" stroke-width="1.51"/><path d="M348,834L439,805L437,773Z" fill="#49316d" stroke="#49316d" stroke-width="1.51"/><path d="M331,228L265,258L340,346Z" fill="#492d74" stroke="#492d74" stroke-width="1.51"/><path d="M303,178L265,258L331,228Z" fill="#462d6c" stroke="#462d6c" stroke-width="1.51"/><path d="M303,178L331,228L443,146Z" fill="#472d6c" stroke="#472d6c" stroke-width="1.51"/><path d="M227,430L225,523L308,511Z" fill="#4d2f7f" stroke="#4d2f7f" stroke-width="1.51"/><path d="M225,523L233,564L308,511Z" fill="#4c2f7b" stroke="#4c2f7b" stroke-width="1.51"/><path d="M581,843L675,860L607,784Z" fill="#4e327c" stroke="#4e327c" stroke-width="1.51"/><path d="M265,258L237,318L340,346Z" fill="#492e75" stroke="#492e75" stroke-width="1.51"/><path d="M907,239L930,154L831,154Z" fill="#4d307e" stroke="#4d307e" stroke-width="1.51"/><path d="M1019,247L930,154L907,239Z" fill="#4d307e" stroke="#4d307e" stroke-width="1.51"/><path d="M790,820L830,821L818,757Z" fill="#503381" stroke="#503381" stroke-width="1.51"/><path d="M782,898L830,821L790,820Z" fill="#4f337d" stroke="#4f337d" stroke-width="1.51"/><path d="M1005,577L1047,520L957,470Z" fill="#54338f" stroke="#54338f" stroke-width="1.51"/><path d="M1098,346L1019,247L999,353Z" fill="#503183" stroke="#503183" stroke-width="1.51"/><path d="M1124,573L1047,520L1005,577Z" fill="#523388" stroke="#523388" stroke-width="1.51"/><path d="M343,87L303,178L443,146Z" fill="#452c67" stroke="#452c67" stroke-width="1.51"/><path d="M968,666L1026,656L1005,577Z" fill="#513384" stroke="#513384" stroke-width="1.51"/><path d="M929,805L938,744L818,757Z" fill="#4f337e" stroke="#4f337e" stroke-width="1.51"/><path d="M220,731L334,758L325,691Z" fill="#472f6b" stroke="#472f6b" stroke-width="1.51"/><path d="M325,691L334,758L417,684Z" fill="#4a3072" stroke="#4a3072" stroke-width="1.51"/><path d="M587,47L521,32L470,150Z" fill="#462d6e" stroke="#462d6e" stroke-width="1.51"/><path d="M494,-31L521,32L616,-60Z" fill="#432c64" stroke="#432c64" stroke-width="1.51"/><path d="M233,564L251,665L342,551Z" fill="#4b3077" stroke="#4b3077" stroke-width="1.51"/><path d="M171,646L251,665L233,564Z" fill="#482f6f" stroke="#482f6f" stroke-width="1.51"/><path d="M999,353L1019,247L946,323Z" fill="#513186" stroke="#513186" stroke-width="1.51"/><path d="M1093,388L999,353L1005,415Z" fill="#52328c" stroke="#52328c" stroke-width="1.51"/><path d="M1040,726L1026,656L968,666Z" fill="#4f337e" stroke="#4f337e" stroke-width="1.51"/><path d="M581,843L576,900L675,860Z" fill="#4d3277" stroke="#4d3277" stroke-width="1.51"/><path d="M675,860L782,898L790,820Z" fill="#4f337f" stroke="#4f337f" stroke-width="1.51"/><path d="M478,900L576,900L504,818Z" fill="#4a3270" stroke="#4a3270" stroke-width="1.51"/><path d="M478,900L504,818L439,805Z" fill="#49316f" stroke="#49316f" stroke-width="1.51"/><path d="M521,32L437,30L470,150Z" fill="#452c69" stroke="#452c69" stroke-width="1.51"/><path d="M437,30L343,87L443,146Z" fill="#442c65" stroke="#442c65" stroke-width="1.51"/><path d="M159,341L237,318L128,211Z" fill="#452d6a" stroke="#452d6a" stroke-width="1.51"/><path d="M159,341L227,430L237,318Z" fill="#4a2d75" stroke="#4a2d75" stroke-width="1.51"/><path d="M778,87L760,5L650,71Z" fill="#4b2e7b" stroke="#4b2e7b" stroke-width="1.51"/><path d="M521,32L494,-31L437,30Z" fill="#432c63" stroke="#432c63" stroke-width="1.51"/><path d="M873,47L760,5L778,87Z" fill="#492e74" stroke="#492e74" stroke-width="1.51"/><path d="M938,744L1040,726L968,666Z" fill="#4f337d" stroke="#4f337d" stroke-width="1.51"/><path d="M830,821L929,805L818,757Z" fill="#4f337e" stroke="#4f337e" stroke-width="1.51"/><path d="M821,912L929,805L830,821Z" fill="#4d3379" stroke="#4d3379" stroke-width="1.51"/><path d="M930,154L925,87L831,154Z" fill="#4b2f78" stroke="#4b2f78" stroke-width="1.51"/><path d="M1015,87L925,87L930,154Z" fill="#492f71" stroke="#492f71" stroke-width="1.51"/><path d="M1100,503L1005,415L1047,520Z" fill="#543290" stroke="#543290" stroke-width="1.51"/><path d="M1100,503L1093,388L1005,415Z" fill="#543290" stroke="#543290" stroke-width="1.51"/><path d="M227,430L141,512L225,523Z" fill="#4b2e7b" stroke="#4b2e7b" stroke-width="1.51"/><path d="M225,523L144,587L233,564Z" fill="#492e74" stroke="#492e74" stroke-width="1.51"/><path d="M159,341L163,417L227,430Z" fill="#4a2e77" stroke="#4a2e77" stroke-width="1.51"/><path d="M251,153L265,258L303,178Z" fill="#452c67" stroke="#452c67" stroke-width="1.51"/><path d="M925,87L873,47L831,154Z" fill="#4a2e75" stroke="#4a2e75" stroke-width="1.51"/><path d="M1124,573L1100,503L1047,520Z" fill="#523388" stroke="#523388" stroke-width="1.51"/><path d="M643,945L782,898L675,860Z" fill="#4e337b" stroke="#4e337b" stroke-width="1.51"/><path d="M400,914L478,900L439,805Z" fill="#473169" stroke="#473169" stroke-width="1.51"/><path d="M334,758L348,834L437,773Z" fill="#48306b" stroke="#48306b" stroke-width="1.51"/><path d="M274,821L348,834L334,758Z" fill="#463066" stroke="#463066" stroke-width="1.51"/><path d="M1019,247L1028,181L930,154Z" fill="#4c3078" stroke="#4c3078" stroke-width="1.51"/><path d="M1093,388L1098,346L999,353Z" fill="#513287" stroke="#513287" stroke-width="1.51"/><path d="M1190,341L1098,346L1093,388Z" fill="#4f3282" stroke="#4f3282" stroke-width="1.51"/><path d="M1092,217L1028,181L1019,247Z" fill="#4b3077" stroke="#4b3077" stroke-width="1.51"/><path d="M343,87L251,153L303,178Z" fill="#432c63" stroke="#432c63" stroke-width="1.51"/><path d="M128,211L237,318L265,258Z" fill="#452c6a" stroke="#452c6a" stroke-width="1.51"/><path d="M61,471L141,512L163,417Z" fill="#4a2e77" stroke="#4a2e77" stroke-width="1.51"/><path d="M163,417L141,512L227,430Z" fill="#4c2e7c" stroke="#4c2e7c" stroke-width="1.51"/><path d="M251,665L220,731L325,691Z" fill="#472f6c" stroke="#472f6c" stroke-width="1.51"/><path d="M1052,820L1040,726L938,744Z" fill="#4d3376" stroke="#4d3376" stroke-width="1.51"/><path d="M1026,656L1124,573L1005,577Z" fill="#513384" stroke="#513384" stroke-width="1.51"/><path d="M528,989L643,945L576,900Z" fill="#49326d" stroke="#49326d" stroke-width="1.51"/><path d="M576,900L643,945L675,860Z" fill="#4c3276" stroke="#4c3276" stroke-width="1.51"/><path d="M171,646L220,731L251,665Z" fill="#462f69" stroke="#462f69" stroke-width="1.51"/><path d="M616,-60L521,32L587,47Z" fill="#452d6a" stroke="#452d6a" stroke-width="1.51"/><path d="M265,-10L253,86L343,87Z" fill="#3f2b58" stroke="#3f2b58" stroke-width="1.51"/><path d="M343,87L253,86L251,153Z" fill="#412c5e" stroke="#412c5e" stroke-width="1.51"/><path d="M144,587L171,646L233,564Z" fill="#482f6e" stroke="#482f6e" stroke-width="1.51"/><path d="M782,898L821,912L830,821Z" fill="#4d3379" stroke="#4d3379" stroke-width="1.51"/><path d="M929,805L1052,820L938,744Z" fill="#4d3376" stroke="#4d3376" stroke-width="1.51"/><path d="M787,1013L821,912L782,898Z" fill="#4c3374" stroke="#4c3374" stroke-width="1.51"/><path d="M760,5L695,-53L650,71Z" fill="#492d74" stroke="#492d74" stroke-width="1.51"/><path d="M757,-85L695,-53L760,5Z" fill="#472d6e" stroke="#472d6e" stroke-width="1.51"/><path d="M141,512L144,587L225,523Z" fill="#492e73" stroke="#492e73" stroke-width="1.51"/><path d="M695,-53L616,-60L650,71Z" fill="#472c6d" stroke="#472c6d" stroke-width="1.51"/><path d="M1093,689L1124,573L1026,656Z" fill="#4f337d" stroke="#4f337d" stroke-width="1.51"/><path d="M1100,503L1195,474L1093,388Z" fill="#53338d" stroke="#53338d" stroke-width="1.51"/><path d="M348,834L400,914L439,805Z" fill="#463067" stroke="#463067" stroke-width="1.51"/><path d="M220,731L274,821L334,758Z" fill="#452f65" stroke="#452f65" stroke-width="1.51"/><path d="M1098,346L1092,217L1019,247Z" fill="#4d317c" stroke="#4d317c" stroke-width="1.51"/><path d="M1028,181L1015,87L930,154Z" fill="#4a3072" stroke="#4a3072" stroke-width="1.51"/><path d="M1190,341L1092,217L1098,346Z" fill="#4d317c" stroke="#4d317c" stroke-width="1.51"/><path d="M299,954L400,914L348,834Z" fill="#43305f" stroke="#43305f" stroke-width="1.51"/><path d="M478,900L528,989L576,900Z" fill="#48316a" stroke="#48316a" stroke-width="1.51"/><path d="M1138,726L1093,689L1040,726Z" fill="#4d3375" stroke="#4d3375" stroke-width="1.51"/><path d="M1040,726L1093,689L1026,656Z" fill="#4e337a" stroke="#4e337a" stroke-width="1.51"/><path d="M343,-2L343,87L437,30Z" fill="#412b5d" stroke="#412b5d" stroke-width="1.51"/><path d="M251,153L128,211L265,258Z" fill="#432c64" stroke="#432c64" stroke-width="1.51"/><path d="M1100,134L1015,87L1028,181Z" fill="#482f6e" stroke="#482f6e" stroke-width="1.51"/><path d="M925,87L950,4L873,47Z" fill="#462e6d" stroke="#462e6d" stroke-width="1.51"/><path d="M873,47L874,-42L760,5Z" fill="#462e6d" stroke="#462e6d" stroke-width="1.51"/><path d="M531,-139L424,-43L494,-31Z" fill="#3f2b5a" stroke="#3f2b5a" stroke-width="1.51"/><path d="M494,-31L424,-43L437,30Z" fill="#412b5d" stroke="#412b5d" stroke-width="1.51"/><path d="M424,-43L343,-2L437,30Z" fill="#402b5a" stroke="#402b5a" stroke-width="1.51"/><path d="M1015,87L950,4L925,87Z" fill="#472f6b" stroke="#472f6b" stroke-width="1.51"/><path d="M950,4L874,-42L873,47Z" fill="#452d69" stroke="#452d69" stroke-width="1.51"/><path d="M695,-53L693,-110L616,-60Z" fill="#452d68" stroke="#452d68" stroke-width="1.51"/><path d="M874,-42L757,-85L760,5Z" fill="#462d6b" stroke="#462d6b" stroke-width="1.51"/><path d="M616,-60L592,-113L494,-31Z" fill="#412c61" stroke="#412c61" stroke-width="1.51"/><path d="M427,1026L528,989L478,900Z" fill="#453162" stroke="#453162" stroke-width="1.51"/><path d="M841,1006L908,955L821,912Z" fill="#4a336e" stroke="#4a336e" stroke-width="1.51"/><path d="M1210,661L1170,567L1124,573Z" fill="#4e337c" stroke="#4e337c" stroke-width="1.51"/><path d="M1124,573L1170,567L1100,503Z" fill="#513384" stroke="#513384" stroke-width="1.51"/><path d="M139,139L128,211L251,153Z" fill="#402b5c" stroke="#402b5c" stroke-width="1.51"/><path d="M159,341L83,336L163,417Z" fill="#472d6f" stroke="#472d6f" stroke-width="1.51"/><path d="M141,512L55,580L144,587Z" fill="#472e6d" stroke="#472e6d" stroke-width="1.51"/><path d="M85,256L83,336L159,341Z" fill="#442c67" stroke="#442c67" stroke-width="1.51"/><path d="M854,-116L693,-110L757,-85Z" fill="#442c65" stroke="#442c65" stroke-width="1.51"/><path d="M757,-85L693,-110L695,-53Z" fill="#462c6b" stroke="#462c6b" stroke-width="1.51"/><path d="M1046,943L1052,820L929,805Z" fill="#4a336e" stroke="#4a336e" stroke-width="1.51"/><path d="M1093,689L1210,661L1124,573Z" fill="#4e3379" stroke="#4e3379" stroke-width="1.51"/><path d="M693,-110L592,-113L616,-60Z" fill="#432c63" stroke="#432c63" stroke-width="1.51"/><path d="M1182,207L1100,134L1092,217Z" fill="#49306e" stroke="#49306e" stroke-width="1.51"/><path d="M1092,217L1100,134L1028,181Z" fill="#492f71" stroke="#492f71" stroke-width="1.51"/><path d="M1015,87L1039,-33L950,4Z" fill="#442e64" stroke="#442e64" stroke-width="1.51"/><path d="M1170,567L1195,474L1100,503Z" fill="#513385" stroke="#513385" stroke-width="1.51"/><path d="M54,401L61,471L163,417Z" fill="#492d73" stroke="#492d73" stroke-width="1.51"/><path d="M144,587L61,675L171,646Z" fill="#452e66" stroke="#452e66" stroke-width="1.51"/><path d="M191,855L274,821L220,731Z" fill="#432f5e" stroke="#432f5e" stroke-width="1.51"/><path d="M191,855L258,898L274,821Z" fill="#422f5a" stroke="#422f5a" stroke-width="1.51"/><path d="M1216,410L1190,341L1093,388Z" fill="#503283" stroke="#503283" stroke-width="1.51"/><path d="M821,912L908,955L929,805Z" fill="#4b3372" stroke="#4b3372" stroke-width="1.51"/><path d="M684,1029L782,898L643,945Z" fill="#4c3376" stroke="#4c3376" stroke-width="1.51"/><path d="M128,211L85,256L159,341Z" fill="#432c63" stroke="#432c63" stroke-width="1.51"/><path d="M83,336L54,401L163,417Z" fill="#472d6f" stroke="#472d6f" stroke-width="1.51"/><path d="M0,316L54,401L83,336Z" fill="#442c67" stroke="#442c67" stroke-width="1.51"/><path d="M1052,820L1138,726L1040,726Z" fill="#4c3372" stroke="#4c3372" stroke-width="1.51"/><path d="M1309,437L1216,410L1195,474Z" fill="#513385" stroke="#513385" stroke-width="1.51"/><path d="M167,40L139,139L253,86Z" fill="#3d2a54" stroke="#3d2a54" stroke-width="1.51"/><path d="M253,86L139,139L251,153Z" fill="#402b5a" stroke="#402b5a" stroke-width="1.51"/><path d="M128,211L49,160L85,256Z" fill="#3f2b5a" stroke="#3f2b5a" stroke-width="1.51"/><path d="M573,1043L684,1029L643,945Z" fill="#49336c" stroke="#49336c" stroke-width="1.51"/><path d="M427,1026L573,1043L528,989Z" fill="#443160" stroke="#443160" stroke-width="1.51"/><path d="M274,821L258,898L348,834Z" fill="#433060" stroke="#433060" stroke-width="1.51"/><path d="M129,775L220,731L171,646Z" fill="#442f63" stroke="#442f63" stroke-width="1.51"/><path d="M343,-2L265,-10L343,87Z" fill="#3e2b57" stroke="#3e2b57" stroke-width="1.51"/><path d="M312,-81L265,-10L343,-2Z" fill="#3b2a51" stroke="#3b2a51" stroke-width="1.51"/><path d="M385,-112L343,-2L424,-43Z" fill="#3d2a54" stroke="#3d2a54" stroke-width="1.51"/><path d="M684,1029L787,1013L782,898Z" fill="#4b3373" stroke="#4b3373" stroke-width="1.51"/><path d="M1195,474L1216,410L1093,388Z" fill="#513388" stroke="#513388" stroke-width="1.51"/><path d="M1249,552L1195,474L1170,567Z" fill="#503380" stroke="#503380" stroke-width="1.51"/><path d="M61,471L55,580L141,512Z" fill="#482e6e" stroke="#482e6e" stroke-width="1.51"/><path d="M11,477L55,580L61,471Z" fill="#462d6c" stroke="#462d6c" stroke-width="1.51"/><path d="M1100,134L1105,94L1015,87Z" fill="#462f69" stroke="#462f69" stroke-width="1.51"/><path d="M953,-123L854,-116L874,-42Z" fill="#422c5e" stroke="#422c5e" stroke-width="1.51"/><path d="M1176,91L1105,94L1100,134Z" fill="#452f65" stroke="#452f65" stroke-width="1.51"/><path d="M1182,207L1092,217L1190,341Z" fill="#4b3174" stroke="#4b3174" stroke-width="1.51"/><path d="M592,-113L531,-139L494,-31Z" fill="#402b5b" stroke="#402b5b" stroke-width="1.51"/><path d="M693,-110L531,-139L592,-113Z" fill="#412b5e" stroke="#412b5e" stroke-width="1.51"/><path d="M787,1013L841,1006L821,912Z" fill="#4a336f" stroke="#4a336f" stroke-width="1.51"/><path d="M923,1004L841,1006L1114,1041Z" fill="#453361" stroke="#453361" stroke-width="1.51"/><path d="M528,989L573,1043L643,945Z" fill="#473268" stroke="#473268" stroke-width="1.51"/><path d="M427,1026L478,900L400,914Z" fill="#443162" stroke="#443162" stroke-width="1.51"/><path d="M61,675L129,775L171,646Z" fill="#432e60" stroke="#432e60" stroke-width="1.51"/><path d="M129,775L191,855L220,731Z" fill="#422e5c" stroke="#422e5c" stroke-width="1.51"/><path d="M1265,311L1182,207L1190,341Z" fill="#4b3174" stroke="#4b3174" stroke-width="1.51"/><path d="M256,1038L299,954L258,898Z" fill="#3f2f53" stroke="#3f2f53" stroke-width="1.51"/><path d="M258,898L299,954L348,834Z" fill="#42305b" stroke="#42305b" stroke-width="1.51"/><path d="M874,-42L854,-116L757,-85Z" fill="#442c64" stroke="#442c64" stroke-width="1.51"/><path d="M693,-110L854,-116L531,-139Z" fill="#432c64" stroke="#432c64" stroke-width="1.51"/><path d="M953,-123L874,-42L950,4Z" fill="#422d60" stroke="#422d60" stroke-width="1.51"/><path d="M299,954L340,983L400,914Z" fill="#42305a" stroke="#42305a" stroke-width="1.51"/><path d="M531,-139L385,-112L424,-43Z" fill="#3d2a54" stroke="#3d2a54" stroke-width="1.51"/><path d="M1046,943L929,805L908,955Z" fill="#4a336c" stroke="#4a336c" stroke-width="1.51"/><path d="M1046,943L1087,856L1052,820Z" fill="#483368" stroke="#483368" stroke-width="1.51"/><path d="M1052,820L1087,856L1138,726Z" fill="#4a336d" stroke="#4a336d" stroke-width="1.51"/><path d="M340,983L427,1026L400,914Z" fill="#42305b" stroke="#42305b" stroke-width="1.51"/><path d="M55,580L61,675L144,587Z" fill="#452e66" stroke="#452e66" stroke-width="1.51"/><path d="M-22,250L0,316L85,256Z" fill="#402b5c" stroke="#402b5c" stroke-width="1.51"/><path d="M191,-6L167,40L253,86Z" fill="#3b2a50" stroke="#3b2a50" stroke-width="1.51"/><path d="M191,-6L253,86L265,-10Z" fill="#3b2a51" stroke="#3b2a51" stroke-width="1.51"/><path d="M385,-112L312,-81L343,-2Z" fill="#3b2a4f" stroke="#3b2a4f" stroke-width="1.51"/><path d="M1205,741L1210,661L1138,726Z" fill="#4b336f" stroke="#4b336f" stroke-width="1.51"/><path d="M1138,726L1210,661L1093,689Z" fill="#4c3374" stroke="#4c3374" stroke-width="1.51"/><path d="M55,580L-20,642L61,675Z" fill="#422d5f" stroke="#422d5f" stroke-width="1.51"/><path d="M54,401L11,477L61,471Z" fill="#482d72" stroke="#482d72" stroke-width="1.51"/><path d="M-30,411L11,477L54,401Z" fill="#472d6d" stroke="#472d6d" stroke-width="1.51"/><path d="M1210,661L1249,552L1170,567Z" fill="#4d3379" stroke="#4d3379" stroke-width="1.51"/><path d="M1216,410L1265,311L1190,341Z" fill="#4e327b" stroke="#4e327b" stroke-width="1.51"/><path d="M841,1006L923,1004L908,955Z" fill="#483368" stroke="#483368" stroke-width="1.51"/><path d="M1114,1041L841,1006L787,1013Z" fill="#473364" stroke="#473364" stroke-width="1.51"/><path d="M1114,1041L787,1013L684,1029Z" fill="#473367" stroke="#473367" stroke-width="1.51"/><path d="M1105,94L1039,-33L1015,87Z" fill="#442e64" stroke="#442e64" stroke-width="1.51"/><path d="M1100,-45L1039,-33L1105,94Z" fill="#422e5c" stroke="#422e5c" stroke-width="1.51"/><path d="M269,-131L191,-6L265,-10Z" fill="#382949" stroke="#382949" stroke-width="1.51"/><path d="M85,256L0,316L83,336Z" fill="#422b62" stroke="#422b62" stroke-width="1.51"/><path d="M49,160L128,211L139,139Z" fill="#3e2a57" stroke="#3e2a57" stroke-width="1.51"/><path d="M49,160L139,139L56,64Z" fill="#3b2a50" stroke="#3b2a50" stroke-width="1.51"/><path d="M340,983L256,1038L427,1026Z" fill="#3f3053" stroke="#3f3053" stroke-width="1.51"/><path d="M299,954L256,1038L340,983Z" fill="#3e2f52" stroke="#3e2f52" stroke-width="1.51"/><path d="M191,855L174,904L258,898Z" fill="#402f55" stroke="#402f55" stroke-width="1.51"/><path d="M103,845L174,904L191,855Z" fill="#3e2e52" stroke="#3e2e52" stroke-width="1.51"/><path d="M103,845L191,855L129,775Z" fill="#3f2e56" stroke="#3f2e56" stroke-width="1.51"/><path d="M1393,582L1294,507L1249,552Z" fill="#4d3377" stroke="#4d3377" stroke-width="1.51"/><path d="M1172,844L1205,741L1138,726Z" fill="#49336a" stroke="#49336a" stroke-width="1.51"/><path d="M1087,856L1172,844L1138,726Z" fill="#493369" stroke="#493369" stroke-width="1.51"/><path d="M1006,994L1046,943L908,955Z" fill="#473365" stroke="#473365" stroke-width="1.51"/><path d="M56,64L139,139L167,40Z" fill="#3b2a4e" stroke="#3b2a4e" stroke-width="1.51"/><path d="M1216,159L1176,91L1100,134Z" fill="#452f65" stroke="#452f65" stroke-width="1.51"/><path d="M1309,437L1265,311L1216,410Z" fill="#4e327c" stroke="#4e327c" stroke-width="1.51"/><path d="M61,675L64,771L129,775Z" fill="#412e59" stroke="#412e59" stroke-width="1.51"/><path d="M-32,755L64,771L61,675Z" fill="#3f2d55" stroke="#3f2d55" stroke-width="1.51"/><path d="M1216,159L1100,134L1182,207Z" fill="#472f69" stroke="#472f69" stroke-width="1.51"/><path d="M1257,212L1216,159L1182,207Z" fill="#473069" stroke="#473069" stroke-width="1.51"/><path d="M854,-116L953,-123L531,-139Z" fill="#422c62" stroke="#422c62" stroke-width="1.51"/><path d="M1039,-33L953,-123L950,4Z" fill="#412d5d" stroke="#412d5d" stroke-width="1.51"/><path d="M1047,-87L953,-123L1039,-33Z" fill="#3f2c58" stroke="#3f2c58" stroke-width="1.51"/><path d="M64,771L103,845L129,775Z" fill="#3f2d55" stroke="#3f2d55" stroke-width="1.51"/><path d="M11,477L-17,579L55,580Z" fill="#452d66" stroke="#452d66" stroke-width="1.51"/><path d="M-79,484L-17,579L11,477Z" fill="#442d66" stroke="#442d66" stroke-width="1.51"/><path d="M0,316L-30,411L54,401Z" fill="#442c67" stroke="#442c67" stroke-width="1.51"/><path d="M-76,351L-30,411L0,316Z" fill="#422c62" stroke="#422c62" stroke-width="1.51"/><path d="M923,1004L1006,994L908,955Z" fill="#473365" stroke="#473365" stroke-width="1.51"/><path d="M1095,944L1172,844L1087,856Z" fill="#463363" stroke="#463363" stroke-width="1.51"/><path d="M1249,552L1294,507L1195,474Z" fill="#4f337f" stroke="#4f337f" stroke-width="1.51"/><path d="M1273,652L1249,552L1210,661Z" fill="#4c3374" stroke="#4c3374" stroke-width="1.51"/><path d="M1265,311L1257,212L1182,207Z" fill="#49316d" stroke="#49316d" stroke-width="1.51"/><path d="M1193,-56L1100,-45L1176,91Z" fill="#402e57" stroke="#402e57" stroke-width="1.51"/><path d="M1374,202L1257,212L1265,311Z" fill="#473169" stroke="#473169" stroke-width="1.51"/><path d="M1095,944L1087,856L1046,943Z" fill="#463363" stroke="#463363" stroke-width="1.51"/><path d="M1279,738L1273,652L1210,661Z" fill="#4a336d" stroke="#4a336d" stroke-width="1.51"/><path d="M1279,738L1210,661L1205,741Z" fill="#49336c" stroke="#49336c" stroke-width="1.51"/><path d="M-17,579L-20,642L55,580Z" fill="#422d61" stroke="#422d61" stroke-width="1.51"/><path d="M-8,868L49,909L103,845Z" fill="#3a2d4a" stroke="#3a2d4a" stroke-width="1.51"/><path d="M-77,657L-20,642L-93,601Z" fill="#3f2d57" stroke="#3f2d57" stroke-width="1.51"/><path d="M1100,-45L1047,-87L1039,-33Z" fill="#402d57" stroke="#402d57" stroke-width="1.51"/><path d="M1294,507L1309,437L1195,474Z" fill="#503381" stroke="#503381" stroke-width="1.51"/><path d="M1355,381L1309,437L1375,472Z" fill="#4f337c" stroke="#4f337c" stroke-width="1.51"/><path d="M1114,1041L1095,944L1046,943Z" fill="#44335d" stroke="#44335d" stroke-width="1.51"/><path d="M1176,91L1100,-45L1105,94Z" fill="#432e5e" stroke="#432e5e" stroke-width="1.51"/><path d="M1126,-93L1100,-45L1193,-56Z" fill="#3d2d51" stroke="#3d2d51" stroke-width="1.51"/><path d="M49,160L-22,250L85,256Z" fill="#3e2a57" stroke="#3e2a57" stroke-width="1.51"/><path d="M101,-43L56,64L167,40Z" fill="#372947" stroke="#372947" stroke-width="1.51"/><path d="M49,160L-9,154L-22,250Z" fill="#3b2a51" stroke="#3b2a51" stroke-width="1.51"/><path d="M312,-81L269,-131L265,-10Z" fill="#38294a" stroke="#38294a" stroke-width="1.51"/><path d="M385,-112L269,-131L312,-81Z" fill="#382949" stroke="#382949" stroke-width="1.51"/><path d="M531,-139L269,-131L385,-112Z" fill="#3a294d" stroke="#3a294d" stroke-width="1.51"/><path d="M101,-43L167,40L191,-6Z" fill="#382948" stroke="#382948" stroke-width="1.51"/><path d="M174,904L256,1038L258,898Z" fill="#3e2f51" stroke="#3e2f51" stroke-width="1.51"/><path d="M427,1026L256,1038L573,1043Z" fill="#413057" stroke="#413057" stroke-width="1.51"/><path d="M141,1038L256,1038L174,904Z" fill="#3b2e49" stroke="#3b2e49" stroke-width="1.51"/><path d="M56,64L-9,154L49,160Z" fill="#3a294c" stroke="#3a294c" stroke-width="1.51"/><path d="M-76,351L0,316L-22,250Z" fill="#3f2b5b" stroke="#3f2b5b" stroke-width="1.51"/><path d="M-104,427L-79,484L-30,411Z" fill="#452c68" stroke="#452c68" stroke-width="1.51"/><path d="M-30,411L-79,484L11,477Z" fill="#462d6b" stroke="#462d6b" stroke-width="1.51"/><path d="M1375,472L1309,437L1294,507Z" fill="#4f337d" stroke="#4f337d" stroke-width="1.51"/><path d="M1281,850L1279,738L1205,741Z" fill="#473364" stroke="#473364" stroke-width="1.51"/><path d="M1281,850L1205,741L1172,844Z" fill="#473363" stroke="#473363" stroke-width="1.51"/><path d="M-109,202L-76,351L-22,250Z" fill="#3d2a55" stroke="#3d2a55" stroke-width="1.51"/><path d="M132,-146L101,-43L191,-6Z" fill="#342840" stroke="#342840" stroke-width="1.51"/><path d="M-78,51L-78,161L-9,154Z" fill="#362845" stroke="#362845" stroke-width="1.51"/><path d="M1309,437L1355,381L1265,311Z" fill="#4d3278" stroke="#4d3278" stroke-width="1.51"/><path d="M1375,472L1294,507L1393,582Z" fill="#4d3377" stroke="#4d3377" stroke-width="1.51"/><path d="M103,845L49,909L174,904Z" fill="#3c2e4d" stroke="#3c2e4d" stroke-width="1.51"/><path d="M-20,642L-32,755L61,675Z" fill="#3f2d58" stroke="#3f2d58" stroke-width="1.51"/><path d="M-77,657L-32,755L-20,642Z" fill="#3e2c54" stroke="#3e2c54" stroke-width="1.51"/><path d="M1100,-45L1126,-93L1047,-87Z" fill="#3e2d53" stroke="#3e2d53" stroke-width="1.51"/><path d="M1047,-87L1126,-93L953,-123Z" fill="#3e2c54" stroke="#3e2c54" stroke-width="1.51"/><path d="M1289,88L1176,91L1216,159Z" fill="#432f5f" stroke="#432f5f" stroke-width="1.51"/><path d="M1297,117L1216,159L1257,212Z" fill="#453063" stroke="#453063" stroke-width="1.51"/><path d="M-76,351L-104,427L-30,411Z" fill="#432c63" stroke="#432c63" stroke-width="1.51"/><path d="M-93,601L-20,642L-17,579Z" fill="#412c5c" stroke="#412c5c" stroke-width="1.51"/><path d="M-109,202L-104,427L-76,351Z" fill="#3f2a59" stroke="#3f2a59" stroke-width="1.51"/><path d="M-93,601L-17,579L-79,484Z" fill="#422c5f" stroke="#422c5f" stroke-width="1.51"/><path d="M-104,427L-93,601L-79,484Z" fill="#432c62" stroke="#432c62" stroke-width="1.51"/><path d="M-8,868L103,845L64,771Z" fill="#3c2d4f" stroke="#3c2d4f" stroke-width="1.51"/><path d="M1351,134L1297,117L1257,212Z" fill="#43305f" stroke="#43305f" stroke-width="1.51"/><path d="M1400,294L1374,202L1265,311Z" fill="#483169" stroke="#483169" stroke-width="1.51"/><path d="M1393,582L1249,552L1273,652Z" fill="#4c3373" stroke="#4c3373" stroke-width="1.51"/><path d="M1297,117L1289,88L1216,159Z" fill="#432f5e" stroke="#432f5e" stroke-width="1.51"/><path d="M1297,-12L1193,-56L1176,91Z" fill="#3f2d54" stroke="#3f2d54" stroke-width="1.51"/><path d="M1095,944L1212,935L1172,844Z" fill="#45335e" stroke="#45335e" stroke-width="1.51"/><path d="M1398,656L1393,582L1273,652Z" fill="#49336c" stroke="#49336c" stroke-width="1.51"/><path d="M1208,1019L1212,935L1095,944Z" fill="#423358" stroke="#423358" stroke-width="1.51"/><path d="M-32,755L-8,868L64,771Z" fill="#3c2c4e" stroke="#3c2c4e" stroke-width="1.51"/><path d="M-23,913L-8,868L-135,863Z" fill="#372c42" stroke="#372c42" stroke-width="1.51"/><path d="M-9,154L-78,161L-22,250Z" fill="#3a2a4e" stroke="#3a2a4e" stroke-width="1.51"/><path d="M-30,27L-9,154L56,64Z" fill="#372846" stroke="#372846" stroke-width="1.51"/><path d="M1212,935L1281,850L1172,844Z" fill="#44335d" stroke="#44335d" stroke-width="1.51"/><path d="M573,1043L1114,1041L684,1029Z" fill="#49336b" stroke="#49336b" stroke-width="1.51"/><path d="M923,1004L1114,1041L1006,994Z" fill="#45335e" stroke="#45335e" stroke-width="1.51"/><path d="M1006,994L1114,1041L1046,943Z" fill="#44335d" stroke="#44335d" stroke-width="1.51"/><path d="M256,1038L141,1038L573,1043Z" fill="#3e2f50" stroke="#3e2f50" stroke-width="1.51"/><path d="M100,1038L141,1038L174,904Z" fill="#392e46" stroke="#392e46" stroke-width="1.51"/><path d="M100,1038L174,904L49,909Z" fill="#3a2d48" stroke="#3a2d48" stroke-width="1.51"/><path d="M1398,656L1273,652L1375,729Z" fill="#473367" stroke="#473367" stroke-width="1.51"/><path d="M-19,-39L-30,27L56,64Z" fill="#34273e" stroke="#34273e" stroke-width="1.51"/><path d="M269,-131L132,-146L191,-6Z" fill="#352841" stroke="#352841" stroke-width="1.51"/><path d="M531,-139L132,-146L269,-131Z" fill="#362845" stroke="#362845" stroke-width="1.51"/><path d="M-78,161L-109,202L-22,250Z" fill="#3a294d" stroke="#3a294d" stroke-width="1.51"/><path d="M-78,51L-109,202L-78,161Z" fill="#362845" stroke="#362845" stroke-width="1.51"/><path d="M-19,-39L56,64L101,-43Z" fill="#34283f" stroke="#34283f" stroke-width="1.51"/><path d="M1297,117L1351,134L1289,88Z" fill="#412f5a" stroke="#412f5a" stroke-width="1.51"/><path d="M1289,88L1297,-12L1176,91Z" fill="#3f2e57" stroke="#3f2e57" stroke-width="1.51"/><path d="M1400,294L1265,311L1355,381Z" fill="#4a3270" stroke="#4a3270" stroke-width="1.51"/><path d="M1400,294L1355,381L1442,293Z" fill="#49316c" stroke="#49316c" stroke-width="1.51"/><path d="M1433,435L1355,381L1375,472Z" fill="#4d3379" stroke="#4d3379" stroke-width="1.51"/><path d="M1374,202L1351,134L1257,212Z" fill="#443060" stroke="#443060" stroke-width="1.51"/><path d="M132,-146L80,-122L101,-43Z" fill="#312739" stroke="#312739" stroke-width="1.51"/><path d="M141,1038L100,1038L573,1043Z" fill="#3c2e4c" stroke="#3c2e4c" stroke-width="1.51"/><path d="M-31,1010L100,1038L49,909Z" fill="#362c40" stroke="#362c40" stroke-width="1.51"/><path d="M1375,729L1273,652L1279,738Z" fill="#483368" stroke="#483368" stroke-width="1.51"/><path d="M1212,935L1261,932L1281,850Z" fill="#423358" stroke="#423358" stroke-width="1.51"/><path d="M1208,1019L1261,932L1212,935Z" fill="#413355" stroke="#413355" stroke-width="1.51"/><path d="M1451,519L1433,435L1375,472Z" fill="#4d3377" stroke="#4d3377" stroke-width="1.51"/><path d="M1375,729L1279,738L1368,827Z" fill="#45335f" stroke="#45335f" stroke-width="1.51"/><path d="M1368,827L1279,738L1281,850Z" fill="#44335e" stroke="#44335e" stroke-width="1.51"/><path d="M-8,868L-23,913L49,909Z" fill="#382c45" stroke="#382c45" stroke-width="1.51"/><path d="M-135,863L-8,868L-32,755Z" fill="#392c46" stroke="#392c46" stroke-width="1.51"/><path d="M-129,768L-32,755L-77,657Z" fill="#3c2c4e" stroke="#3c2c4e" stroke-width="1.51"/><path d="M1451,519L1375,472L1393,582Z" fill="#4b3373" stroke="#4b3373" stroke-width="1.51"/><path d="M1398,85L1297,-12L1289,88Z" fill="#3e2e52" stroke="#3e2e52" stroke-width="1.51"/><path d="M1193,-56L1208,-130L1126,-93Z" fill="#3b2c4c" stroke="#3b2c4c" stroke-width="1.51"/><path d="M-30,27L-78,51L-9,154Z" fill="#352842" stroke="#352842" stroke-width="1.51"/><path d="M-10,-103L-19,-39L101,-43Z" fill="#302737" stroke="#302737" stroke-width="1.51"/><path d="M-124,-39L-78,51L-30,27Z" fill="#302738" stroke="#302738" stroke-width="1.51"/><path d="M1114,1041L1208,1019L1095,944Z" fill="#423357" stroke="#423357" stroke-width="1.51"/><path d="M1305,-106L1208,-130L1193,-56Z" fill="#392c47" stroke="#392c47" stroke-width="1.51"/><path d="M1126,-93L1208,-130L953,-123Z" fill="#3b2c4e" stroke="#3b2c4e" stroke-width="1.51"/><path d="M953,-123L1359,-144L531,-139Z" fill="#3e2c56" stroke="#3e2c56" stroke-width="1.51"/><path d="M531,-139L1359,-144L132,-146Z" fill="#422b60" stroke="#422b60" stroke-width="1.51"/><path d="M-109,202L-129,768L-104,427Z" fill="#432c64" stroke="#432c64" stroke-width="1.51"/><path d="M-104,427L-129,768L-93,601Z" fill="#3f2c57" stroke="#3f2c57" stroke-width="1.51"/><path d="M-93,601L-129,768L-77,657Z" fill="#3c2c51" stroke="#3c2c51" stroke-width="1.51"/><path d="M1448,598L1393,582L1398,656Z" fill="#48336a" stroke="#48336a" stroke-width="1.51"/><path d="M1448,598L1451,519L1393,582Z" fill="#4a336d" stroke="#4a336d" stroke-width="1.51"/><path d="M1351,134L1398,85L1289,88Z" fill="#402f57" stroke="#402f57" stroke-width="1.51"/><path d="M1440,159L1398,85L1351,134Z" fill="#402f55" stroke="#402f55" stroke-width="1.51"/><path d="M1400,294L1442,293L1374,202Z" fill="#453165" stroke="#453165" stroke-width="1.51"/><path d="M1433,435L1442,293L1355,381Z" fill="#4a3270" stroke="#4a3270" stroke-width="1.51"/><path d="M1488,207L1442,293L1527,332Z" fill="#443161" stroke="#443161" stroke-width="1.51"/><path d="M1440,672L1448,598L1398,656Z" fill="#473366" stroke="#473366" stroke-width="1.51"/><path d="M1347,912L1368,827L1281,850Z" fill="#423357" stroke="#423357" stroke-width="1.51"/><path d="M1347,912L1281,850L1261,932Z" fill="#423356" stroke="#423356" stroke-width="1.51"/><path d="M1440,672L1398,656L1375,729Z" fill="#463363" stroke="#463363" stroke-width="1.51"/><path d="M1469,752L1440,672L1375,729Z" fill="#45335f" stroke="#45335f" stroke-width="1.51"/><path d="M-89,-122L-10,-103L80,-122Z" fill="#2c2530" stroke="#2c2530" stroke-width="1.51"/><path d="M80,-122L-10,-103L101,-43Z" fill="#302637" stroke="#302637" stroke-width="1.51"/><path d="M-19,-39L-124,-39L-30,27Z" fill="#302636" stroke="#302636" stroke-width="1.51"/><path d="M1440,159L1351,134L1374,202Z" fill="#412f5a" stroke="#412f5a" stroke-width="1.51"/><path d="M1297,-12L1305,-106L1193,-56Z" fill="#3a2c4a" stroke="#3a2c4a" stroke-width="1.51"/><path d="M1353,1017L1347,912L1261,932Z" fill="#3f334f" stroke="#3f334f" stroke-width="1.51"/><path d="M1368,827L1469,752L1375,729Z" fill="#44335b" stroke="#44335b" stroke-width="1.51"/><path d="M1488,207L1440,159L1374,202Z" fill="#42305a" stroke="#42305a" stroke-width="1.51"/><path d="M1488,207L1374,202L1442,293Z" fill="#44305f" stroke="#44305f" stroke-width="1.51"/><path d="M-109,986L-31,1010L-23,913Z" fill="#332b3a" stroke="#332b3a" stroke-width="1.51"/><path d="M-23,913L-31,1010L49,909Z" fill="#362c3f" stroke="#362c3f" stroke-width="1.51"/><path d="M-129,768L-135,863L-32,755Z" fill="#382c46" stroke="#382c46" stroke-width="1.51"/><path d="M-124,-39L-135,863L-129,768Z" fill="#402c5c" stroke="#402c5c" stroke-width="1.51"/><path d="M1378,-39L1297,-12L1398,85Z" fill="#3b2d4b" stroke="#3b2d4b" stroke-width="1.51"/><path d="M1378,-39L1305,-106L1297,-12Z" fill="#392c46" stroke="#392c46" stroke-width="1.51"/><path d="M1440,159L1433,39L1398,85Z" fill="#3d2e51" stroke="#3d2e51" stroke-width="1.51"/><path d="M1527,332L1442,293L1433,435Z" fill="#48326a" stroke="#48326a" stroke-width="1.51"/><path d="M1523,432L1433,435L1451,519Z" fill="#4c3374" stroke="#4c3374" stroke-width="1.51"/><path d="M1528,515L1523,432L1451,519Z" fill="#4a3370" stroke="#4a3370" stroke-width="1.51"/><path d="M1536,589L1451,519L1448,598Z" fill="#483369" stroke="#483369" stroke-width="1.51"/><path d="M1477,828L1469,752L1368,827Z" fill="#423356" stroke="#423356" stroke-width="1.51"/><path d="M1433,39L1378,-39L1398,85Z" fill="#3b2d4a" stroke="#3b2d4a" stroke-width="1.51"/><path d="M1528,515L1451,519L1536,589Z" fill="#49336a" stroke="#49336a" stroke-width="1.51"/><path d="M-109,202L-124,-39L-129,768Z" fill="#3d2a55" stroke="#3d2a55" stroke-width="1.51"/><path d="M-78,51L-124,-39L-109,202Z" fill="#32273d" stroke="#32273d" stroke-width="1.51"/><path d="M-89,-122L-124,-39L-19,-39Z" fill="#2c262f" stroke="#2c262f" stroke-width="1.51"/><path d="M-135,863L-132,925L-23,913Z" fill="#352b3d" stroke="#352b3d" stroke-width="1.51"/><path d="M1536,589L1448,598L1536,670Z" fill="#463363" stroke="#463363" stroke-width="1.51"/><path d="M1347,912L1477,828L1368,827Z" fill="#413353" stroke="#413353" stroke-width="1.51"/><path d="M1208,1019L1305,1045L1261,932Z" fill="#3f334f" stroke="#3f334f" stroke-width="1.51"/><path d="M1114,1041L1305,1045L1208,1019Z" fill="#3f324f" stroke="#3f324f" stroke-width="1.51"/><path d="M573,1043L1305,1045L1114,1041Z" fill="#44335c" stroke="#44335c" stroke-width="1.51"/><path d="M1519,55L1433,39L1440,159Z" fill="#3c2e4c" stroke="#3c2e4c" stroke-width="1.51"/><path d="M1565,204L1527,332L1523,432Z" fill="#453162" stroke="#453162" stroke-width="1.51"/><path d="M1523,432L1527,332L1433,435Z" fill="#49326e" stroke="#49326e" stroke-width="1.51"/><path d="M-132,925L-109,986L-23,913Z" fill="#332b3a" stroke="#332b3a" stroke-width="1.51"/><path d="M1536,670L1448,598L1440,672Z" fill="#463362" stroke="#463362" stroke-width="1.51"/><path d="M1528,515L1565,204L1523,432Z" fill="#483269" stroke="#483269" stroke-width="1.51"/><path d="M-10,-103L-89,-122L-19,-39Z" fill="#2d2530" stroke="#2d2530" stroke-width="1.51"/><path d="M132,-146L-89,-122L80,-122Z" fill="#2e2632" stroke="#2e2632" stroke-width="1.51"/><path d="M1305,1045L1353,1017L1261,932Z" fill="#3e334c" stroke="#3e334c" stroke-width="1.51"/><path d="M1488,207L1510,173L1440,159Z" fill="#402f56" stroke="#402f56" stroke-width="1.51"/><path d="M1565,204L1510,173L1488,207Z" fill="#403055" stroke="#403055" stroke-width="1.51"/><path d="M1469,752L1536,670L1440,672Z" fill="#44335c" stroke="#44335c" stroke-width="1.51"/><path d="M1483,938L1477,828L1347,912Z" fill="#3e334d" stroke="#3e334d" stroke-width="1.51"/><path d="M1553,723L1536,670L1469,752Z" fill="#423358" stroke="#423358" stroke-width="1.51"/><path d="M1378,-39L1359,-144L1305,-106Z" fill="#362c40" stroke="#362c40" stroke-width="1.51"/><path d="M1433,39L1430,-38L1378,-39Z" fill="#382d45" stroke="#382d45" stroke-width="1.51"/><path d="M1519,55L1430,-38L1433,39Z" fill="#392d46" stroke="#392d46" stroke-width="1.51"/><path d="M1424,-122L1359,-144L1378,-39Z" fill="#352b3d" stroke="#352b3d" stroke-width="1.51"/><path d="M1305,-106L1359,-144L1208,-130Z" fill="#362c41" stroke="#362c41" stroke-width="1.51"/><path d="M1208,-130L1359,-144L953,-123Z" fill="#392c48" stroke="#392c48" stroke-width="1.51"/><path d="M1477,828L1553,723L1469,752Z" fill="#413355" stroke="#413355" stroke-width="1.51"/><path d="M1536,670L1553,723L1536,589Z" fill="#44335c" stroke="#44335c" stroke-width="1.51"/><path d="M1536,589L1565,204L1528,515Z" fill="#4b336f" stroke="#4b336f" stroke-width="1.51"/><path d="M1535,851L1553,723L1477,828Z" fill="#3f3350" stroke="#3f3350" stroke-width="1.51"/><path d="M1510,173L1519,55L1440,159Z" fill="#3e2f50" stroke="#3e2f50" stroke-width="1.51"/><path d="M1527,332L1565,204L1488,207Z" fill="#42305a" stroke="#42305a" stroke-width="1.51"/><path d="M1553,723L1565,204L1536,589Z" fill="#49336a" stroke="#49336a" stroke-width="1.51"/><path d="M1565,204L1519,55L1510,173Z" fill="#3d2f4f" stroke="#3d2f4f" stroke-width="1.51"/><path d="M1430,-38L1424,-122L1378,-39Z" fill="#352c3f" stroke="#352c3f" stroke-width="1.51"/><path d="M1542,-88L1424,-122L1430,-38Z" fill="#332b3a" stroke="#332b3a" stroke-width="1.51"/><path d="M1456,1003L1483,938L1347,912Z" fill="#3c3248" stroke="#3c3248" stroke-width="1.51"/><path d="M1483,938L1535,851L1477,828Z" fill="#3d334b" stroke="#3d334b" stroke-width="1.51"/><path d="M1483,938L1521,935L1535,851Z" fill="#3b3247" stroke="#3b3247" stroke-width="1.51"/><path d="M1353,1017L1456,1003L1347,912Z" fill="#3d3249" stroke="#3d3249" stroke-width="1.51"/><path d="M1305,1045L1456,1003L1353,1017Z" fill="#3b3245" stroke="#3b3245" stroke-width="1.51"/><path d="M1456,1003L1521,935L1483,938Z" fill="#3a3244" stroke="#3a3244" stroke-width="1.51"/><path d="M1519,55L1561,-18L1430,-38Z" fill="#372d41" stroke="#372d41" stroke-width="1.51"/><path d="M1565,204L1561,-18L1519,55Z" fill="#392e47" stroke="#392e47" stroke-width="1.51"/><path d="M1424,-122L1542,-88L1359,-144Z" fill="#322b38" stroke="#322b38" stroke-width="1.51"/><path d="M1561,-18L1542,-88L1430,-38Z" fill="#342c3b" stroke="#342c3b" stroke-width="1.51"/><path d="M1456,1003L1549,1030L1521,935Z" fill="#393240" stroke="#393240" stroke-width="1.51"/><path d="M1521,935L1549,1030L1535,851Z" fill="#3a3242" stroke="#3a3242" stroke-width="1.51"/><path d="M1535,851L1549,1030L1553,723Z" fill="#3c3248" stroke="#3c3248" stroke-width="1.51"/><path d="M1553,723L1549,1030L1565,204Z" fill="#44335d" stroke="#44335d" stroke-width="1.51"/><path d="M1305,1045L1549,1030L1456,1003Z" fill="#393241" stroke="#393241" stroke-width="1.51"/></svg>